# xmcd
#
# Track frame offsets:
#	150
#	7090
#	26875
#	47034
#	67459
#	90120
#	108282
#	116327
#	134434
#	151196
#	169104
#	191665
#	214410
#	232633
#	251669
#	272733
#	296216
#	339248
#
# Disc length: 4720 seconds
#
# Revision: 1
# Processed by: cddbd v1.5.2PL0 Copyright (c) Steve Scherf et al.
# Submitted via: audiograbber 1.83.01
#
DISCID=03126e12
DTITLE=Usher - Here I Stand 
DYEAR=1900
DGENRE=
TTITLE0=Intro 
TTITLE1=Love In This Club feat. Young Jeezy 
TTITLE2=This Ain't Sex 
TTITLE3=Trading Places 
TTITLE4=Moving Mountains 
TTITLE5=What's Your Name feat. Will.I.Am 
TTITLE6=Prayer For You (Interlude) 
TTITLE7=Something Special 
TTITLE8=Love You Gently 
TTITLE9=Best Thing feat. Jay Z 
TTITLE10=Before I Met You 
TTITLE11=His Mistakes 
TTITLE12=Appetite 
TTITLE13=What's A Man To Do 
TTITLE14=Lifetime 
TTITLE15=Love In This Club Part 2 feat. Beyonce and Lil Wayne
TTITLE16=Here I Stand 
TTITLE17=Will Work For Love 
EXTD=
EXTT0=
EXTT1=
EXTT2=
EXTT3=
EXTT4=
EXTT5=
EXTT6=
EXTT7=
EXTT8=
EXTT9=
EXTT10=
EXTT11=
EXTT12=
EXTT13=
EXTT14=
EXTT15=
EXTT16=
EXTT17=
PLAYORDER=
